<svg width="64" height="77" viewBox="0 0 64 77" fill="none" xmlns="http://www.w3.org/2000/svg">
<g id="online-payment 1" clip-path="url(#clip0_1_404)">
<g id="Group">
<g id="Group_2">
<g id="Group_3">
<path id="Vector" d="M23.5811 38.3365H16V41.5313H48V38.3365H40.4566C42.7689 36.3853 44.6058 33.6349 45.6665 30.3494H52.8L57.1986 36.2103C57.4517 36.5471 57.8124 36.7394 58.1906 36.7391H62.6666V33.5443H58.784L54.3814 27.6834C54.1283 27.3466 53.7676 27.1543 53.3894 27.1546H44C43.2636 27.1546 42.6666 26.4393 42.6666 25.5571C42.6666 22.9104 44.4575 20.7648 46.6666 20.7648H48C48.7364 20.7648 49.3334 21.4801 49.3334 22.3623C49.3334 23.2445 49.9304 23.9598 50.6668 23.9598H58.6668V20.765H51.7721C51.205 18.8517 49.6948 17.5726 48.0001 17.5702H46.6668C46.3376 17.5706 46.0145 17.6009 45.6981 17.6565C45.1286 15.8869 44.3237 14.2417 43.3182 12.7812L46.0508 11.0096L51.2094 15.5622L52.7907 12.984L46.9494 7.83066C46.5338 7.4645 45.9791 7.41852 45.5254 7.7125L34.7574 14.6945C34.4841 14.8723 34.1781 14.9655 33.8671 14.9656C32.8363 14.9659 32.0002 13.9649 32 12.7297C31.9943 11.9676 32.3155 11.2552 32.8506 10.8432L46.144 3.281L62.3534 7.94552L62.9748 4.84013L46.3081 0.0478614C46.0121 -0.0395976 45.7 -0.000660364 45.4255 0.158084L34.1437 6.57493C33.444 6.45198 32.7376 6.38893 32.0296 6.38804C23.9295 6.3783 17.3564 14.2375 17.3482 23.942C17.3431 29.8917 19.8073 35.153 23.5811 38.3365ZM20.252 21.0988C21.2711 15.0856 25.2859 10.718 30.0549 9.77258C29.5799 10.6454 29.3146 11.678 29.3178 12.7565C29.3186 13.0455 29.3386 13.3289 29.3757 13.6055C27.7586 14.7031 26.6666 16.7819 26.6666 19.1675C26.6666 22.6964 29.0545 25.5573 32 25.5573C33.4727 25.5573 34.6666 26.9876 34.6666 28.7521C34.6666 30.5165 33.4727 31.9467 32 31.9467C30.5273 31.9467 29.3334 30.5164 29.3334 28.7519H26.6667C26.6667 31.7293 28.3665 34.231 30.6667 34.9402V36.739H33.3334V34.9404C35.6336 34.231 37.3334 31.7294 37.3334 28.7521C37.3334 25.2232 34.9455 22.3623 32 22.3623C30.5273 22.3623 29.3334 20.932 29.3334 19.1675C29.3334 18.0365 29.8253 17.0453 30.5653 16.4774C31.3948 17.5233 32.5674 18.1745 33.8667 18.1691C34.136 18.1686 34.4036 18.1381 34.6668 18.081V20.7648H37.3334V16.6613L40.9193 14.3363C41.8915 15.6307 42.6595 17.1257 43.1871 18.7479C41.2775 20.1528 40.0029 22.6761 40 25.557C40 27.7201 41.1965 29.5477 42.8395 30.1436C40.8806 35.1065 36.681 38.3549 32 38.3363C31.202 38.3354 30.4061 38.239 29.6241 38.0488C23.1292 36.469 18.9333 28.8801 20.252 21.0988Z" fill="#346CD9"/>
<path id="Vector_2" d="M61.3334 39.9337V59.1028C61.3334 59.985 60.7364 60.7003 60 60.7003H4C3.26363 60.7003 2.66663 59.985 2.66663 59.1028V14.3749C2.66663 13.4927 3.26363 12.7774 4 12.7774H17.3334V9.58264H4C1.79087 9.58264 0 11.7282 0 14.3749V59.1028C0 61.7495 1.79087 63.8951 4 63.8951H21.8419L17.8419 73.4796H14.6666V76.6744H49.3332V73.4796H46.1571L42.1571 63.8951H60C62.2091 63.8951 64 61.7495 64 59.1028V39.9337H61.3334ZM43.1758 73.4796H20.8232L24.8232 63.8951H39.1759L43.1758 73.4796Z" fill="#1016B4"/>
<path id="Vector_3" d="M5.33337 49.5183V55.9081C5.33337 56.7903 5.93037 57.5055 6.66675 57.5055H12V54.3107H8V49.5185H5.33337V49.5183Z" fill="#1016B4"/>
<path id="Vector_4" d="M17.3332 54.3105H14.6666V57.5053H17.3332V54.3105Z" fill="#1016B4"/>
<path id="Vector_5" d="M56 54.3105H52V57.5053H57.3334C58.0697 57.5053 58.6668 56.79 58.6668 55.9078V49.5181H56V54.3105Z" fill="#1016B4"/>
<path id="Vector_6" d="M49.3332 54.3105H46.6666V57.5053H49.3332V54.3105Z" fill="#1016B4"/>
<path id="Vector_7" d="M14.6666 15.9723H9.33337C7.12425 15.9723 5.33337 18.1179 5.33337 20.7646V46.3232H8V20.7646C8 19.8823 8.597 19.1671 9.33337 19.1671H14.6667V15.9723H14.6666Z" fill="#1016B4"/>
<path id="Vector_8" d="M44 54.3105H20V57.5053H44V54.3105Z" fill="#1016B4"/>
</g>
</g>
</g>
</g>
<defs>
<clipPath id="clip0_1_404">
<rect width="64" height="76.6763" fill="white"/>
</clipPath>
</defs>
</svg>
